<svg xmlns="http://www.w3.org/2000/svg"
  xmlns:xlink="http://www.w3.org/1999/xlink" style="isolation:isolate" viewBox="0 0 850 850" width="32" height="32">
  <path d=" M 189.7 393.1 L 69.9 328.7 C 63.2 325.1 55 330 55 337.6 L 55 638.2 C 55 641.9 57.1 645.4 60.3 647.1 L 180.1 711.3 C 186.8 714.9 195 710 195 702.4 L 195 402 C 195 398.3 193 394.9 189.7 393.1 Z  M 161.8 277 L 106.8 306.6 C 99.7 310.4 99.7 320.6 106.8 324.4 L 161.8 354 C 168.5 357.6 176.7 352.7 176.7 345.1 L 176.7 285.9 C 176.7 278.3 168.5 273.4 161.8 277 Z " fill-rule="evenodd" fill="#FFFFFF"/>
  <path d=" M 801.207 642.557 L 439.393 837.066 C 431.615 841.248 418.985 841.248 411.207 837.066 L 49.393 642.557 C 41.615 638.376 35.3 627.812 35.3 618.981 L 35.3 231.659 C 35.3 222.828 41.615 212.264 49.393 208.083 L 411.207 13.574 C 418.985 9.392 431.615 9.392 439.393 13.574 L 801.207 208.083 C 808.985 212.264 815.3 222.828 815.3 231.659 L 815.3 618.981 C 815.3 627.812 808.985 638.376 801.207 642.557 Z  M 791.6 625.01 L 430.06 819.38 C 429.63 819.6 429.17 819.75 428.7 819.84 C 427.58 820.09 426.44 820.21 425.3 820.2 C 424.16 820.21 423.02 820.09 421.9 819.84 C 421.43 819.75 420.97 819.6 420.54 819.38 L 59 625.01 C 58.73 624.86 58.49 624.67 58.29 624.45 C 57.63 623.79 57.07 623.05 56.6 622.25 C 56.11 621.46 55.73 620.61 55.46 619.72 C 55.36 619.43 55.31 619.13 55.3 618.83 L 55.3 231.66 C 55.3 229.17 56.67 226.88 58.86 225.7 L 420.54 31.26 C 420.97 31.04 421.43 30.89 421.9 30.8 C 423.02 30.55 424.16 30.43 425.3 30.44 C 426.44 30.43 427.58 30.55 428.7 30.8 C 429.17 30.89 429.63 31.04 430.06 31.26 L 791.74 225.7 C 793.93 226.88 795.3 229.17 795.3 231.66 L 795.3 618.83 C 795.29 619.13 795.24 619.43 795.14 619.72 C 794.87 620.61 794.49 621.46 794 622.25 C 793.53 623.05 792.97 623.79 792.31 624.45 C 792.11 624.67 791.87 624.86 791.6 625.01 Z " fill-rule="evenodd" fill="#FFFFFF"/>
  <path d=" M 413.3 547.3 L 323.3 581.3 C 316.7 583.8 309.6 578.9 309.6 571.8 L 309.6 485.1 C 309.6 478 302.5 473.1 295.9 475.6 L 229.6 500.7 C 225.7 502.2 223.1 506 223.1 510.2 L 223.1 696.9 C 223.1 704 230.2 708.9 236.8 706.4 L 499.9 607.1 C 503.8 605.6 506.4 601.8 506.4 597.6 L 506.4 295.9 C 506.4 288.8 499.3 283.9 492.7 286.4 L 116.7 428.3 C 108.6 431.4 107.8 442.6 115.5 446.7 L 192.8 488.4 C 195.4 489.8 198.4 490 201.2 489 L 406.1 411.7 C 412.7 409.2 419.8 414.1 419.8 421.2 L 419.8 537.9 C 419.8 542 417.2 545.8 413.3 547.3 Z " fill="#FFFFFF"/>
  <path d=" M 546 474 L 714.5 410.4 C 721.1 407.9 728.2 412.8 728.2 419.9 L 728.2 421.4 C 728.2 425.6 725.6 429.4 721.7 430.9 L 538.9 499.9 C 535 501.4 532.4 505.2 532.4 509.4 L 532.4 580.2 C 532.4 587.3 539.5 592.2 546.1 589.7 L 808.2 490.8 C 812.1 489.3 814.7 485.5 814.7 481.3 L 814.7 294.8 C 814.7 287.7 807.6 282.8 801 285.3 L 632.5 348.9 C 625.9 351.4 618.8 346.5 618.8 339.4 L 618.8 338.3 C 618.8 334.1 621.4 330.3 625.3 328.8 L 808 259.8 C 811.9 258.3 814.5 254.5 814.5 250.3 L 814.5 179.5 C 814.5 172.4 807.4 167.5 800.8 170 L 538.9 269 C 535 270.5 532.4 274.3 532.4 278.5 L 532.4 464.6 C 532.3 471.6 539.4 476.5 546 474 Z " fill="#FFFFFF"/>
</svg>
